<svg version="1.1" id="Layer_1" xmlns="http://www.w3.org/2000/svg" xmlns:xlink="http://www.w3.org/1999/xlink" x="0px" y="0px"
	 width="100%" viewBox="0 0 99 103" enable-background="new 0 0 99 103" xml:space="preserve">
<path fill="#FCFCFB" opacity="1.000000" stroke="none" 
	d="
M1.000000,42.000000 
	C1.000000,28.000004 1.000000,14.500008 1.000000,1.000009 
	C33.999989,1.000006 66.999977,1.000006 99.999969,1.000003 
	C99.999985,35.333309 99.999985,69.666618 99.999992,103.999954 
	C67.000031,103.999969 34.000069,103.999969 1.000051,103.999985 
	C1.000000,83.500000 1.000000,63.000000 1.000000,42.000000 
M51.102379,26.114080 
	C50.367138,26.736568 49.631897,27.359058 48.154919,27.955627 
	C47.907524,27.955717 47.660126,27.955809 47.477940,27.302462 
	C46.332012,26.470005 45.186089,25.637548 44.344425,24.386705 
	C44.637440,24.206316 44.930454,24.025928 45.950874,23.886723 
	C46.548241,23.343636 47.753685,22.524830 47.651302,22.299030 
	C46.230801,19.166189 44.630962,16.114660 42.391289,13.015321 
	C41.935223,13.008193 41.479160,13.001065 40.691525,12.399762 
	C39.240326,10.632148 37.789127,8.864533 36.337929,7.096918 
	C35.650333,7.358732 34.962742,7.620545 34.275146,7.882359 
	C34.527279,10.935316 34.779415,13.988274 34.414841,17.034193 
	C34.118645,16.949717 33.826046,16.841537 33.523987,16.795698 
	C33.437168,16.782522 33.222332,16.999479 33.235729,17.026331 
	C35.032215,20.626986 36.844479,24.219769 39.258022,27.932096 
	C39.461136,27.956497 39.664246,27.980896 39.970188,28.090200 
	C39.970188,28.090200 40.090919,28.033585 39.991772,28.649708 
	C40.013290,29.063581 40.034809,29.477453 39.977921,30.683676 
	C39.953537,30.947962 39.929153,31.212246 39.221390,31.165255 
	C38.478825,32.128574 37.736259,33.091892 36.302467,34.451855 
	C35.550045,34.310936 34.797619,34.170021 33.634716,33.806141 
	C33.352230,33.643688 33.156105,33.409058 33.410950,32.623035 
	C31.309944,28.001995 27.004732,27.866222 22.967344,27.053799 
	C22.967344,28.295048 22.967344,29.157095 22.258326,29.796041 
	C19.517340,28.118113 16.772764,26.558802 12.765554,30.450586 
	C15.429207,32.161316 17.704773,33.622799 19.976933,35.616455 
	C19.963524,35.970898 19.950117,36.325340 19.360792,37.041523 
	C22.391781,38.575089 25.413702,40.128582 28.502869,41.534294 
	C28.585226,41.571770 29.396980,40.006340 30.121124,38.737122 
	C30.370033,38.507290 30.618942,38.277458 31.144602,38.656979 
	C31.729103,39.784416 32.313606,40.911850 32.864384,42.734276 
	C30.531853,47.652622 36.107677,45.210629 36.682755,47.567116 
	C36.395237,47.744987 36.107716,47.922855 35.068687,48.065086 
	C32.293331,47.052860 31.714325,49.182327 30.130730,50.931377 
	C29.873348,50.922047 29.615967,50.912712 29.586985,50.208866 
	C29.654966,49.563164 30.027164,48.586044 29.742388,48.324642 
	C27.626974,46.382858 21.151449,48.992596 20.196447,52.613014 
	C20.446539,53.024166 20.696632,53.435314 20.235100,54.050407 
	C17.873297,55.507549 15.511494,56.964691 13.149691,58.421829 
	C13.381954,59.057579 13.614218,59.693325 13.846481,60.329075 
	C15.507241,60.537167 17.163509,60.854488 18.830009,60.923012 
	C20.538294,60.993252 22.256586,60.820049 24.217623,61.544971 
	C27.703825,60.577869 32.279457,61.337395 33.460781,55.780800 
	C33.643345,55.502960 33.825909,55.225121 34.706387,55.025291 
	C35.114029,54.869595 35.521667,54.713898 36.806259,54.555603 
	C37.500145,55.938301 36.559887,58.981403 40.022358,58.418007 
	C40.048866,58.678440 40.075371,58.938869 40.031528,59.794716 
	C40.036812,60.193497 40.042095,60.592278 39.284882,61.086327 
	C39.034073,61.138329 38.783264,61.190327 37.953266,61.451813 
	C36.572910,64.183418 35.192554,66.915031 33.424717,70.131119 
	C33.319313,70.900505 33.213909,71.669891 33.003044,73.209068 
	C34.017895,72.110542 34.523560,71.563187 35.719414,71.276566 
	C35.162159,74.475876 34.604908,77.675194 34.047657,80.874504 
	C34.861462,81.237366 35.675266,81.600227 36.489071,81.963097 
	C38.009624,79.982414 39.530178,78.001732 41.492474,76.290916 
	C41.883915,76.598862 42.275360,76.906799 42.666805,77.214737 
	C42.775940,76.818954 42.885071,76.423172 43.688053,75.884483 
	C45.003300,73.154053 46.445427,70.471207 47.505550,67.645073 
	C47.676872,67.188354 46.149719,66.094498 44.896847,65.029022 
	C44.627499,64.761841 44.358150,64.494652 44.785683,63.953671 
	C45.657387,62.979111 46.529091,62.004547 47.900928,61.044273 
	C48.234226,61.035618 48.567520,61.026962 49.241867,61.743050 
	C51.806625,62.548882 54.371387,63.354713 56.623585,64.626076 
	C56.309132,64.826576 55.994678,65.027069 55.058956,65.197083 
	C52.912991,68.421310 55.070076,75.060555 58.649788,76.249237 
	C58.697899,75.928802 58.746010,75.608376 59.076077,74.801346 
	C59.345692,74.549110 59.615303,74.296883 60.077274,74.760147 
	C61.114441,77.571159 61.408756,81.299942 65.533485,80.891212 
	C66.175919,80.827553 66.461304,77.160698 66.995285,74.311241 
	C67.035133,73.743835 67.074982,73.176430 67.747200,72.312950 
	C67.630638,67.941902 67.444237,63.610172 61.904373,61.717224 
	C61.664764,61.478527 61.425156,61.239830 61.226212,60.310806 
	C60.498573,59.480560 59.770931,58.650311 59.099854,57.049889 
	C59.114773,56.792862 59.129696,56.535835 59.833790,56.576206 
	C61.376236,56.955898 63.233574,59.896103 64.757614,56.001865 
	C65.168816,55.742939 65.580009,55.484009 66.491364,55.151920 
	C66.659554,55.141850 66.827751,55.131783 67.291710,55.549416 
	C67.588928,55.717052 67.886139,55.884689 67.974693,56.750042 
	C70.978127,58.421814 73.981560,60.093586 77.541718,61.958038 
	C77.900635,61.823612 78.259552,61.689190 78.618469,61.554771 
	C78.071312,61.138344 77.524162,60.721920 76.473663,59.837540 
	C77.957321,59.998241 79.437698,60.207699 80.925423,60.308048 
	C83.078964,60.453300 85.237831,60.519604 87.394432,60.619583 
	C87.610474,59.974739 87.826515,59.329899 88.042557,58.685059 
	C86.291924,57.239010 84.541298,55.792961 83.031700,53.804680 
	C82.715187,53.208427 82.398674,52.612175 81.841133,51.341095 
	C79.016998,50.125843 76.219009,48.837124 73.328506,47.808342 
	C73.037689,47.704834 72.186890,49.174675 70.855568,49.934917 
	C70.609016,49.947948 70.362465,49.960979 69.818138,49.282581 
	C67.568871,49.260143 65.319611,49.237701 62.968266,48.385605 
	C62.925831,48.110218 62.883396,47.834835 63.473751,47.243294 
	C64.901054,46.808426 66.389465,46.510021 67.740593,45.905037 
	C69.533615,45.102180 69.483437,44.981323 67.037369,42.295578 
	C67.041031,41.947094 67.044701,41.598610 67.773758,41.265858 
	C68.555237,40.519302 69.336716,39.772747 70.879593,39.059967 
	C71.133598,39.064487 71.387611,39.069012 71.452393,39.756992 
	C71.901276,40.388447 72.622902,41.624096 72.758995,41.562660 
	C75.856308,40.164448 78.889610,38.624439 81.790771,36.588940 
	C81.544815,36.106709 81.298866,35.624474 81.720886,34.891541 
	C83.892517,33.379135 86.064156,31.866730 88.536720,30.144745 
	C83.951569,26.179159 81.045059,28.871243 77.395592,30.036724 
	C76.973869,30.007902 76.552147,29.979080 76.251022,29.278938 
	C76.352119,29.149345 76.486259,29.032806 76.544197,28.886160 
	C76.593391,28.761633 76.595657,28.491558 76.548958,28.474274 
	C73.264885,27.258720 69.639275,29.194281 67.478882,32.976543 
	C66.974808,33.253494 66.470726,33.530445 65.553200,34.009674 
	C65.553200,34.009674 65.121025,34.168072 64.626762,33.753868 
	C64.447617,33.635078 64.268463,33.516289 64.201843,32.867706 
	C63.466827,32.240387 62.731808,31.613064 61.804482,30.565514 
	C61.635067,30.288631 61.393932,30.106905 61.281155,29.363291 
	C61.245571,28.907162 61.209988,28.451035 61.571743,27.736723 
	C61.818901,27.518269 61.970074,27.246429 62.753242,27.228437 
	C67.041237,25.019958 67.618126,21.261194 66.547478,16.742983 
	C66.337311,16.450186 66.127151,16.157391 66.079727,15.187956 
	C66.294952,14.751472 66.741142,14.283399 66.686493,13.883830 
	C66.410774,11.868019 66.004578,9.870054 65.644157,7.865830 
	C64.108398,9.060837 62.423615,10.112333 61.087547,11.499656 
	C60.145618,12.477727 59.677105,13.911727 58.380131,14.829620 
	C53.798729,15.031615 54.515697,18.885086 53.918373,21.613596 
	C53.273453,24.559517 55.286011,23.815554 56.926296,24.080341 
	C56.940914,24.332376 56.955528,24.584410 56.385723,25.112196 
	C55.574509,25.401468 54.763298,25.690741 53.215164,26.003700 
	C52.725372,26.045664 52.235577,26.087626 51.102379,26.114080 
M72.534813,72.559540 
	C74.609650,72.196564 76.909721,72.239998 78.650917,71.275009 
	C79.369781,70.876602 79.525711,67.833321 78.790306,66.858871 
	C77.902275,65.682190 75.610954,64.610977 74.251602,64.920349 
	C69.982704,65.891899 69.964714,68.783905 72.534813,72.559540 
M84.623497,48.934734 
	C88.154877,48.898655 90.123863,47.073254 89.337196,43.636200 
	C89.020332,42.251785 87.059807,40.477493 85.681206,40.318180 
	C84.309853,40.159702 81.427277,41.914318 81.487976,42.639027 
	C81.664047,44.741241 82.984695,46.747589 84.623497,48.934734 
M73.846466,24.303122 
	C77.615707,24.836945 79.793571,23.161570 79.284203,19.416395 
	C79.105194,18.100237 77.127777,16.293903 75.758087,16.080339 
	C74.377991,15.865149 71.508957,17.265598 71.450638,18.107649 
	C71.316513,20.044027 72.493698,22.071232 73.846466,24.303122 
M15.548811,48.922100 
	C19.848116,47.817162 21.761127,45.321896 19.953224,42.695732 
	C19.076752,41.422569 17.062140,40.277992 15.571516,40.288700 
	C14.367746,40.297337 12.093927,42.258327 12.199773,43.118916 
	C12.440649,45.077381 13.852647,46.891808 15.548811,48.922100 
M54.035229,76.395073 
	C52.099377,76.038483 50.050705,75.159416 48.274666,75.542931 
	C47.369442,75.738403 46.035542,78.793808 46.503521,79.519630 
	C47.557632,81.154510 49.669670,83.249321 51.250530,83.169258 
	C54.743618,82.992332 55.707172,80.338654 54.035229,76.395073 
M26.331371,24.573341 
	C29.427662,23.993984 31.456917,22.154015 30.245518,19.083082 
	C29.665720,17.613276 27.203346,16.234304 25.490862,16.097151 
	C24.388531,16.008867 21.922871,18.546749 22.133749,19.392685 
	C22.602833,21.274395 24.369535,22.832624 26.331371,24.573341 
M53.829826,12.998480 
	C55.914562,9.870817 55.513191,7.169667 51.816841,6.041976 
	C50.498489,5.639772 48.004425,6.541203 47.217590,7.666248 
	C46.435310,8.784782 46.507149,11.931473 47.296509,12.418380 
	C48.904175,13.410051 51.246601,13.210562 53.829826,12.998480 
M24.767092,73.044403 
	C28.418848,73.687782 30.751635,72.250946 30.418034,68.472343 
	C30.303144,67.171051 28.425974,65.303925 27.083424,65.032410 
	C25.700785,64.752777 22.773947,65.944351 22.665619,66.772491 
	C22.416962,68.673439 23.471716,70.744888 24.767092,73.044403 
z"/>
<path fill="#748B2E" opacity="1.000000" stroke="none" 
	d="
M82.790665,54.346912 
	C84.541298,55.792961 86.291924,57.239010 88.042557,58.685059 
	C87.826515,59.329899 87.610474,59.974739 87.394432,60.619583 
	C85.237831,60.519604 83.078964,60.453300 80.925423,60.308048 
	C79.437698,60.207699 77.957321,59.998241 76.721909,60.314827 
	C76.971466,61.116581 76.976410,61.440994 76.984993,61.765358 
	C73.981560,60.093586 70.978127,58.421814 68.370773,56.349014 
	C68.848724,55.637486 68.930603,55.326988 69.006241,55.008247 
	C69.000000,55.000000 69.012413,55.016052 69.372757,55.154121 
	C71.119270,55.618042 73.590111,56.475483 73.729813,56.190437 
	C76.026001,51.505260 79.811958,54.930653 82.790665,54.346912 
z"/>
<path fill="#71892B" opacity="1.000000" stroke="none" 
	d="
M41.050732,76.021049 
	C39.530178,78.001732 38.009624,79.982414 36.489071,81.963097 
	C35.675266,81.600227 34.861462,81.237366 34.047657,80.874504 
	C34.604908,77.675194 35.162159,74.475876 35.112629,70.977203 
	C34.274628,70.334099 34.043415,69.990372 33.812202,69.646637 
	C35.192554,66.915031 36.572910,64.183418 38.370121,61.693546 
	C39.024315,63.838367 39.261650,65.741455 39.547699,68.035110 
	C43.399281,69.365959 40.301758,73.273438 41.050732,76.021049 
M36.410477,68.485641 
	C36.410477,68.485641 36.524380,68.416862 36.410477,68.485641 
z"/>
<path fill="#768E33" opacity="1.000000" stroke="none" 
	d="
M58.997223,15.142166 
	C59.677105,13.911727 60.145618,12.477727 61.087547,11.499656 
	C62.423615,10.112333 64.108398,9.060837 65.644157,7.865829 
	C66.004578,9.870054 66.410774,11.868019 66.686493,13.883830 
	C66.741142,14.283399 66.294952,14.751472 65.686195,15.769999 
	C65.186577,17.243969 65.080482,18.135895 65.001953,19.023022 
	C65.029526,19.018225 65.028641,18.962259 64.502510,18.909790 
	C63.978371,19.422123 63.980366,19.986925 63.891140,20.605003 
	C63.799915,20.658279 63.552059,20.995956 63.306679,20.596180 
	C59.059776,21.514727 59.131153,18.701168 58.963432,15.893467 
	C58.983654,15.476146 58.990437,15.309155 58.997223,15.142166 
z"/>
<path fill="#738B2D" opacity="1.000000" stroke="none" 
	d="
M23.970499,60.753399 
	C22.256586,60.820049 20.538294,60.993252 18.830009,60.923012 
	C17.163509,60.854488 15.507241,60.537167 13.846481,60.329075 
	C13.614218,59.693325 13.381954,59.057579 13.149691,58.421829 
	C15.511494,56.964691 17.873297,55.507549 20.993000,54.004070 
	C23.336519,53.957733 24.922140,53.957733 27.735310,53.957733 
	C25.699656,56.108631 24.383186,57.295921 23.371584,58.702477 
	C23.096470,59.084999 23.740398,60.128506 23.964474,60.848442 
	C23.966419,60.828236 23.970499,60.753399 23.970499,60.753399 
z"/>
<path fill="#63792A" opacity="1.000000" stroke="none" 
	d="
M72.263260,72.309334 
	C69.964714,68.783905 69.982704,65.891899 74.251602,64.920349 
	C75.610954,64.610977 77.902275,65.682190 78.790306,66.858871 
	C79.525711,67.833321 79.369781,70.876602 78.650917,71.275009 
	C76.909721,72.239998 74.609650,72.196564 72.263260,72.309334 
z"/>
<path fill="#63782A" opacity="1.000000" stroke="none" 
	d="
M84.239868,48.863144 
	C82.984695,46.747589 81.664047,44.741241 81.487976,42.639027 
	C81.427277,41.914318 84.309853,40.159702 85.681206,40.318180 
	C87.059807,40.477493 89.020332,42.251785 89.337196,43.636200 
	C90.123863,47.073254 88.154877,48.898655 84.239868,48.863144 
z"/>
<path fill="#748C30" opacity="1.000000" stroke="none" 
	d="
M66.911797,75.160034 
	C66.461304,77.160698 66.175919,80.827553 65.533485,80.891212 
	C61.408756,81.299942 61.114441,77.571159 60.035118,74.007736 
	C59.992962,71.717377 59.992962,70.179428 59.992962,68.398270 
	C61.230457,68.661781 62.101139,68.847183 62.984070,69.019562 
	C62.996323,69.006531 62.975964,69.026878 62.954475,69.368088 
	C64.259254,71.526215 65.585526,73.343124 66.911797,75.160034 
z"/>
<path fill="#637829" opacity="1.000000" stroke="none" 
	d="
M73.492584,24.182348 
	C72.493698,22.071232 71.316513,20.044027 71.450638,18.107649 
	C71.508957,17.265598 74.377991,15.865149 75.758087,16.080339 
	C77.127777,16.293903 79.105194,18.100237 79.284203,19.416395 
	C79.793571,23.161570 77.615707,24.836945 73.492584,24.182348 
z"/>
<path fill="#607626" opacity="1.000000" stroke="none" 
	d="
M15.168758,48.843437 
	C13.852647,46.891808 12.440649,45.077381 12.199773,43.118916 
	C12.093927,42.258327 14.367746,40.297337 15.571516,40.288700 
	C17.062140,40.277992 19.076752,41.422569 19.953224,42.695732 
	C21.761127,45.321896 19.848116,47.817162 15.168758,48.843437 
z"/>
<path fill="#5F7525" opacity="1.000000" stroke="none" 
	d="
M54.253456,76.726898 
	C55.707172,80.338654 54.743618,82.992332 51.250530,83.169258 
	C49.669670,83.249321 47.557632,81.154510 46.503521,79.519630 
	C46.035542,78.793808 47.369442,75.738403 48.274666,75.542931 
	C50.050705,75.159416 52.099377,76.038483 54.253456,76.726898 
z"/>
<path fill="#788F35" opacity="1.000000" stroke="none" 
	d="
M59.043293,57.820065 
	C59.770931,58.650311 60.498573,59.480560 60.935715,60.906502 
	C59.408859,62.388313 58.172501,63.274429 56.936146,64.160545 
	C54.371387,63.354713 51.806625,62.548882 49.100906,61.034004 
	C48.695396,59.213886 48.430847,58.102818 48.338207,56.901939 
	C48.725742,56.656433 48.884983,56.455956 49.363274,56.145893 
	C50.496948,56.122200 51.255188,56.163303 52.129242,56.381226 
	C52.440292,56.772560 52.677422,56.919479 52.980743,57.241428 
	C53.005054,57.484055 53.078892,57.966114 52.808342,58.175690 
	C52.718876,59.180893 52.899963,59.976521 53.081047,60.772141 
	C53.737946,59.897652 54.394848,59.023167 55.181862,57.844398 
	C56.555748,57.633434 57.799522,57.726749 59.043293,57.820065 
z"/>
<path fill="#718A2B" opacity="1.000000" stroke="none" 
	d="
M35.031548,17.041231 
	C34.779415,13.988274 34.527279,10.935316 34.275146,7.882359 
	C34.962742,7.620545 35.650333,7.358732 36.337929,7.096918 
	C37.789127,8.864533 39.240326,10.632148 40.830963,13.124670 
	C40.970402,16.072319 40.970402,18.295061 40.970402,21.363285 
	C38.885033,19.449995 37.473885,18.155289 35.776672,16.674355 
	C35.324135,16.643272 35.157661,16.798416 34.983051,16.983885 
	C34.974911,17.014210 35.031548,17.041231 35.031548,17.041231 
z"/>
<path fill="#617727" opacity="1.000000" stroke="none" 
	d="
M25.969355,24.548023 
	C24.369535,22.832624 22.602833,21.274395 22.133749,19.392685 
	C21.922871,18.546749 24.388531,16.008867 25.490862,16.097151 
	C27.203346,16.234304 29.665720,17.613276 30.245518,19.083082 
	C31.456917,22.154015 29.427662,23.993984 25.969355,24.548023 
z"/>
<path fill="#607626" opacity="1.000000" stroke="none" 
	d="
M53.558056,13.250172 
	C51.246601,13.210562 48.904175,13.410051 47.296509,12.418380 
	C46.507149,11.931473 46.435310,8.784782 47.217590,7.666248 
	C48.004425,6.541203 50.498489,5.639772 51.816841,6.041976 
	C55.513191,7.169667 55.914562,9.870817 53.558056,13.250172 
z"/>
<path fill="#5F7524" opacity="1.000000" stroke="none" 
	d="
M24.382229,72.895767 
	C23.471716,70.744888 22.416962,68.673439 22.665619,66.772491 
	C22.773947,65.944351 25.700785,64.752777 27.083424,65.032410 
	C28.425974,65.303925 30.303144,67.171051 30.418034,68.472343 
	C30.751635,72.250946 28.418848,73.687782 24.382229,72.895767 
z"/>
<path fill="#718A2B" opacity="1.000000" stroke="none" 
	d="
M19.980339,35.084282 
	C17.704773,33.622799 15.429207,32.161316 12.765554,30.450586 
	C16.772764,26.558802 19.517340,28.118113 22.621660,29.884520 
	C22.984995,29.972998 22.935900,29.990482 23.012039,30.255611 
	C23.394812,30.701900 23.701443,30.883060 24.006844,31.032497 
	C24.005615,31.000771 23.943590,31.014376 24.048166,31.312780 
	C25.097027,32.425072 26.041311,33.238960 26.999298,34.036705 
	C27.013002,34.020557 26.973433,34.031509 26.798773,34.402657 
	C24.409521,34.877296 22.194931,34.980789 19.980339,35.084282 
z"/>
<path fill="#738B2E" opacity="1.000000" stroke="none" 
	d="
M78.001396,30.223949 
	C81.045059,28.871243 83.951569,26.179159 88.536720,30.144745 
	C86.064156,31.866730 83.892517,33.379135 80.966171,34.976143 
	C78.807930,35.028484 77.404404,34.996223 76.032791,34.634777 
	C76.710281,32.945045 77.355835,31.584499 78.001396,30.223949 
z"/>
<path fill="#EAEEE0" opacity="1.000000" stroke="none" 
	d="
M52.013432,56.204411 
	C51.255188,56.163303 50.496948,56.122200 49.114014,56.129612 
	C48.083420,56.330917 47.975742,56.602123 48.166294,56.991749 
	C48.430847,58.102818 48.695396,59.213886 48.930382,60.671631 
	C48.567520,61.026962 48.234226,61.035618 47.486740,60.677517 
	C46.953629,56.803997 44.166298,57.421631 42.060760,56.696747 
	C42.545925,55.298389 42.993347,54.247093 43.859268,53.130058 
	C44.556980,53.027637 44.836197,52.990955 45.456924,53.179081 
	C50.095276,54.816322 54.163349,54.312649 57.991928,52.250801 
	C58.364777,53.796654 58.754696,55.037727 59.144619,56.278805 
	C59.129696,56.535835 59.114773,56.792862 59.071571,57.434975 
	C57.799522,57.726749 56.555748,57.633434 54.850166,57.880005 
	C53.951870,58.135296 53.515381,58.050705 53.078892,57.966114 
	C53.078892,57.966114 53.005054,57.484055 53.017956,56.969383 
	C52.691715,56.371273 52.352573,56.287842 52.013432,56.204411 
z"/>
<path fill="#EBEFE0" opacity="1.000000" stroke="none" 
	d="
M35.820194,48.100723 
	C36.107716,47.922855 36.395237,47.744987 37.252579,47.327888 
	C38.331940,45.524647 38.841476,43.960625 39.487770,41.976814 
	C36.968079,41.976814 35.519508,41.976814 34.156273,41.637505 
	C35.548370,40.182510 36.855137,39.066830 38.367027,37.816551 
	C38.797642,37.438511 38.970024,37.161957 39.451912,37.127411 
	C41.180840,37.510017 42.547157,37.617508 43.609749,38.043526 
	C39.090794,42.194546 41.406536,46.693218 41.636909,51.093811 
	C40.428276,51.952911 39.709007,52.968418 38.728371,53.437466 
	C38.071957,53.751434 37.044331,53.289307 36.493217,52.950241 
	C37.983303,50.863731 38.529743,49.136082 35.820194,48.100723 
z"/>
<path fill="#E4E9D9" opacity="1.000000" stroke="none" 
	d="
M36.062733,16.860582 
	C37.473885,18.155289 38.885033,19.449995 40.970402,21.363285 
	C40.970402,18.295061 40.970402,16.072319 40.996750,13.421758 
	C41.479160,13.001065 41.935223,13.008193 42.690781,13.472415 
	C44.225346,17.124348 41.016426,21.320021 45.223469,23.845541 
	C44.930454,24.025928 44.637440,24.206316 43.839443,24.615807 
	C42.253281,25.907799 41.172100,26.970692 40.090919,28.033585 
	C40.090919,28.033585 39.970188,28.090200 39.862911,27.829937 
	C39.597698,27.296200 39.368351,27.111244 39.153328,26.667097 
	C38.993610,24.836811 39.069462,23.190407 38.418858,21.914402 
	C37.658245,20.422638 36.264118,19.253883 35.349861,17.814543 
	C35.781563,17.444986 35.950848,17.170485 36.062733,16.860582 
z"/>
<path fill="#E4E9D9" opacity="1.000000" stroke="none" 
	d="
M23.962528,60.868645 
	C23.740398,60.128506 23.096470,59.084999 23.371584,58.702477 
	C24.383186,57.295921 25.699656,56.108631 27.735310,53.957733 
	C24.922140,53.957733 23.336519,53.957733 21.348812,53.902100 
	C20.696632,53.435314 20.446539,53.024166 20.510342,52.324608 
	C23.669020,51.658592 26.513802,51.280983 29.358583,50.903374 
	C29.615967,50.912712 29.873348,50.922047 30.538153,51.304932 
	C31.966541,52.768082 32.987507,53.857685 34.008472,54.947285 
	C33.825909,55.225121 33.643345,55.502960 32.885643,55.825043 
	C30.947680,56.034458 29.289536,55.771240 28.288534,56.461288 
	C26.624538,57.608379 25.382357,59.367367 23.962528,60.868645 
z"/>
<path fill="#EAEEE2" opacity="1.000000" stroke="none" 
	d="
M62.840965,47.559448 
	C62.883396,47.834835 62.925831,48.110218 63.039433,49.207672 
	C63.082642,51.017796 63.054684,52.005852 62.700340,53.011826 
	C61.619102,52.372173 60.864258,51.714600 59.880138,50.950218 
	C59.440849,50.586037 59.230831,50.328659 59.284081,49.746155 
	C59.381172,45.603470 59.214996,41.785908 59.385136,37.835007 
	C61.177402,36.266941 62.633358,34.832222 64.089310,33.397499 
	C64.268463,33.516289 64.447617,33.635078 64.816071,34.298264 
	C64.673820,36.882038 64.342255,38.921417 63.875069,41.312515 
	C63.439957,43.629311 63.140465,45.594379 62.840965,47.559448 
z"/>
<path fill="#7C933D" opacity="1.000000" stroke="none" 
	d="
M22.976170,29.996071 
	C22.967344,29.157095 22.967344,28.295048 22.967344,27.053799 
	C27.004732,27.866222 31.309944,28.001995 32.832603,32.948162 
	C30.493986,33.526028 28.733709,33.778770 26.973433,34.031509 
	C26.973433,34.031509 27.013002,34.020557 27.422348,33.745293 
	C26.535658,32.651478 25.239624,31.832926 23.943590,31.014376 
	C23.943590,31.014376 24.005615,31.000771 24.183146,30.630669 
	C23.885750,30.170538 23.410826,30.080509 22.935900,29.990482 
	C22.935900,29.990482 22.984995,29.972998 22.976170,29.996071 
z"/>
<path fill="#758D31" opacity="1.000000" stroke="none" 
	d="
M63.026730,52.993904 
	C63.054684,52.005852 63.082642,51.017796 63.090469,49.622501 
	C65.319611,49.237701 67.568871,49.260143 69.945587,49.956055 
	C69.719490,52.091705 69.365952,53.553879 69.012413,55.016052 
	C69.012413,55.016052 69.000000,55.000000 68.741524,54.675179 
	C67.987343,54.607475 67.491646,54.864597 66.995941,55.121719 
	C66.827751,55.131783 66.659554,55.141850 65.896240,54.965378 
	C64.866127,54.842358 64.431129,54.905880 63.991982,54.989449 
	C63.987835,55.009502 64.028191,55.016487 64.370728,54.722679 
	C64.146820,53.944065 63.580372,53.459263 63.006271,52.986443 
	C62.998627,52.998428 63.026730,52.993904 63.026730,52.993904 
z"/>
<path fill="#798F37" opacity="1.000000" stroke="none" 
	d="
M40.041344,28.341646 
	C41.172100,26.970692 42.253281,25.907799 43.687309,24.824999 
	C45.186089,25.637548 46.332012,26.470005 47.289169,27.919708 
	C45.907097,34.994102 42.601330,30.464342 40.056328,29.891327 
	C40.034809,29.477453 40.013290,29.063581 40.041344,28.341646 
z"/>
<path fill="#728A2C" opacity="1.000000" stroke="none" 
	d="
M38.161903,37.951149 
	C36.855137,39.066830 35.548370,40.182510 33.862984,41.651619 
	C33.288944,42.016460 33.093525,42.027874 32.898109,42.039288 
	C32.313606,40.911850 31.729103,39.784416 31.034502,38.002029 
	C31.964666,36.241085 33.004932,35.135094 34.045197,34.029102 
	C34.797619,34.170021 35.550045,34.310936 36.652702,34.225533 
	C37.002934,33.999210 36.945713,34.000805 36.661430,34.275276 
	C36.972069,35.683544 37.566986,36.817348 38.161903,37.951149 
z"/>
<path fill="#788F35" opacity="1.000000" stroke="none" 
	d="
M42.023014,57.043804 
	C44.166298,57.421631 46.953629,56.803997 47.236671,60.670372 
	C46.529091,62.004547 45.657387,62.979111 44.146080,64.101257 
	C42.353447,63.162918 41.200417,62.076988 40.047379,60.991058 
	C40.042095,60.592278 40.036812,60.193497 40.409718,59.404022 
	C41.205219,58.351948 41.622536,57.690567 42.023567,57.017193 
	C42.007278,57.005199 42.023014,57.043804 42.023014,57.043804 
z"/>
<path fill="#EAEEE0" opacity="1.000000" stroke="none" 
	d="
M39.666130,61.038692 
	C41.200417,62.076988 42.353447,63.162918 43.797642,64.238159 
	C44.358150,64.494652 44.627499,64.761841 44.833000,65.412933 
	C44.177502,69.207024 43.585850,72.617210 42.994202,76.027390 
	C42.885071,76.423172 42.775940,76.818954 42.666805,77.214737 
	C42.275360,76.906799 41.883915,76.598862 41.271603,76.155983 
	C40.301758,73.273438 43.399281,69.365959 39.547699,68.035110 
	C39.261650,65.741455 39.024315,63.838367 38.659714,61.588799 
	C38.783264,61.190327 39.034073,61.138329 39.666130,61.038692 
z"/>
<path fill="#E5EAD9" opacity="1.000000" stroke="none" 
	d="
M76.000870,34.963959 
	C77.404404,34.996223 78.807930,35.028484 80.632187,35.101494 
	C81.298866,35.624474 81.544815,36.106709 81.424652,36.805756 
	C77.931442,37.760788 73.996719,34.790771 71.641624,39.073536 
	C71.387611,39.069012 71.133598,39.064487 70.475365,38.717194 
	C71.320137,34.499985 67.401886,35.269459 65.966652,33.807396 
	C66.470726,33.530445 66.974808,33.253494 68.123764,33.022781 
	C70.506828,33.062733 72.245018,33.056446 74.038162,33.385231 
	C74.729042,34.134853 75.364952,34.549408 76.000870,34.963959 
z"/>
<path fill="#748C30" opacity="1.000000" stroke="none" 
	d="
M65.759926,33.908535 
	C67.401886,35.269459 71.320137,34.499985 70.094666,38.700310 
	C69.336716,39.772747 68.555237,40.519302 67.031250,41.110401 
	C65.535973,40.968098 64.783203,40.981247 64.020187,40.990341 
	C64.009941,40.986282 64.010689,40.960793 64.010689,40.960793 
	C64.342255,38.921417 64.673820,36.882038 65.063202,34.505367 
	C65.121025,34.168072 65.553200,34.009674 65.759926,33.908535 
z"/>
<path fill="#778E34" opacity="1.000000" stroke="none" 
	d="
M61.174400,27.994905 
	C61.209988,28.451035 61.245571,28.907162 60.857491,29.766453 
	C59.951744,30.771646 59.469662,31.373680 58.993660,31.987293 
	C58.999744,31.998871 58.980888,31.981493 58.616447,31.801510 
	C53.070747,32.597683 54.609562,28.451849 53.952084,25.980013 
	C54.763298,25.690741 55.574509,25.401468 57.042938,24.983742 
	C58.858234,25.901827 60.016315,26.948366 61.174400,27.994905 
z"/>
<path fill="#EBEFE0" opacity="1.000000" stroke="none" 
	d="
M40.017124,30.287502 
	C42.601330,30.464342 45.907097,34.994102 47.256569,28.246428 
	C47.660126,27.955809 47.907524,27.955717 48.542992,28.358429 
	C48.626842,30.011101 48.322613,31.260969 47.885078,33.058517 
	C49.811638,33.058517 51.415348,33.058517 53.068184,33.483978 
	C53.158691,34.191952 53.200066,34.474461 52.864170,34.867161 
	C49.317856,35.118401 45.809414,34.231678 43.432159,37.540848 
	C45.546001,33.370083 41.354042,33.178852 39.904774,31.476528 
	C39.929153,31.212246 39.953537,30.947962 40.017124,30.287502 
z"/>
<path fill="#7D9341" opacity="1.000000" stroke="none" 
	d="
M45.587173,23.866131 
	C41.016426,21.320021 44.225346,17.124348 43.032616,13.486383 
	C44.630962,16.114660 46.230801,19.166189 47.651302,22.299030 
	C47.753685,22.524830 46.548241,23.343636 45.587173,23.866131 
z"/>
<path fill="#7D9441" opacity="1.000000" stroke="none" 
	d="
M43.341125,75.955933 
	C43.585850,72.617210 44.177502,69.207024 45.088417,65.546005 
	C46.149719,66.094498 47.676872,67.188354 47.505550,67.645073 
	C46.445427,70.471207 45.003300,73.154053 43.341125,75.955933 
z"/>
<path fill="#E8EDDE" opacity="1.000000" stroke="none" 
	d="
M69.372757,55.154121 
	C69.365952,53.553879 69.719490,52.091705 70.094467,50.301773 
	C70.362465,49.960979 70.609016,49.947948 71.415985,50.243835 
	C75.344978,51.040478 78.713570,51.528202 82.082153,52.015923 
	C82.398674,52.612175 82.715187,53.208427 82.911179,54.075798 
	C79.811958,54.930653 76.026001,51.505260 73.729813,56.190437 
	C73.590111,56.475483 71.119270,55.618042 69.372757,55.154121 
z"/>
<path fill="#E6EBDB" opacity="1.000000" stroke="none" 
	d="
M56.779865,64.393311 
	C58.172501,63.274429 59.408859,62.388313 60.915382,61.251663 
	C61.425156,61.239830 61.664764,61.478527 61.939663,62.308136 
	C62.307240,64.943558 62.639530,66.988068 62.971817,69.032585 
	C62.101139,68.847183 61.230457,68.661781 59.992962,68.398270 
	C59.992962,70.179428 59.992962,71.717377 59.938938,73.649986 
	C59.615303,74.296883 59.345692,74.549110 58.700680,74.701767 
	C56.877003,71.637177 60.226753,67.318398 55.680222,65.227562 
	C55.994678,65.027069 56.309132,64.826576 56.779865,64.393311 
z"/>
<path fill="#799039" opacity="1.000000" stroke="none" 
	d="
M71.547012,39.415264 
	C73.996719,34.790771 77.931442,37.760788 81.496712,37.066780 
	C78.889610,38.624439 75.856308,40.164448 72.758995,41.562660 
	C72.622902,41.624096 71.901276,40.388447 71.547012,39.415264 
z"/>
<path fill="#788F38" opacity="1.000000" stroke="none" 
	d="
M55.369591,65.212326 
	C60.226753,67.318398 56.877003,71.637177 58.559700,74.945068 
	C58.746010,75.608376 58.697899,75.928802 58.649788,76.249237 
	C55.070076,75.060555 52.912991,68.421310 55.369591,65.212326 
z"/>
<path fill="#7A913A" opacity="1.000000" stroke="none" 
	d="
M62.984070,69.019562 
	C62.639530,66.988068 62.307240,64.943558 62.015907,62.552986 
	C67.444237,63.610172 67.630638,67.941902 67.364624,72.127388 
	C65.646683,70.970177 64.311325,69.998528 62.975964,69.026878 
	C62.975964,69.026878 62.996323,69.006531 62.984070,69.019562 
z"/>
<path fill="#799039" opacity="1.000000" stroke="none" 
	d="
M35.144833,17.944998 
	C36.264118,19.253883 37.658245,20.422638 38.418858,21.914402 
	C39.069462,23.190407 38.993610,24.836811 39.010880,26.846228 
	C38.782688,27.373066 38.655987,27.812927 38.655991,27.812927 
	C36.844479,24.219769 35.032215,20.626986 33.235729,17.026331 
	C33.222332,16.999479 33.437168,16.782522 33.523987,16.795698 
	C33.826046,16.841537 34.118645,16.949717 34.723194,17.037712 
	C35.031548,17.041231 34.974911,17.014210 34.924255,17.246801 
	C34.964005,17.634594 35.054417,17.789795 35.144833,17.944998 
z"/>
<path fill="#799038" opacity="1.000000" stroke="none" 
	d="
M29.472784,50.556122 
	C26.513802,51.280983 23.669020,51.658592 20.392944,52.113190 
	C21.151449,48.992596 27.626974,46.382858 29.742388,48.324642 
	C30.027164,48.586044 29.654966,49.563164 29.472784,50.556122 
z"/>
<path fill="#778F37" opacity="1.000000" stroke="none" 
	d="
M29.868589,39.188404 
	C29.396980,40.006340 28.585226,41.571770 28.502869,41.534294 
	C25.413702,40.128582 22.391781,38.575089 20.084015,36.971233 
	C23.848467,37.581120 27.687321,35.101650 29.868589,39.188404 
z"/>
<path fill="#71892A" opacity="1.000000" stroke="none" 
	d="
M34.357430,54.986290 
	C32.987507,53.857685 31.966541,52.768082 30.923775,51.328251 
	C31.714325,49.182327 32.293331,47.052860 35.444443,48.082905 
	C38.529743,49.136082 37.983303,50.863731 36.399673,53.100166 
	C35.973587,53.835613 35.951447,54.196907 35.929306,54.558201 
	C35.521667,54.713898 35.114029,54.869595 34.357430,54.986290 
z"/>
<path fill="#768D33" opacity="1.000000" stroke="none" 
	d="
M81.961639,51.678513 
	C78.713570,51.528202 75.344978,51.040478 71.786179,50.233551 
	C72.186890,49.174675 73.037689,47.704834 73.328506,47.808342 
	C76.219009,48.837124 79.016998,50.125843 81.961639,51.678513 
z"/>
<path fill="#839848" opacity="1.000000" stroke="none" 
	d="
M36.367783,54.556900 
	C35.951447,54.196907 35.973587,53.835613 36.089268,53.324394 
	C37.044331,53.289307 38.071957,53.751434 38.728371,53.437466 
	C39.709007,52.968418 40.428276,51.952911 41.627247,51.086910 
	C41.995766,51.003952 41.987854,50.981613 41.959713,51.298927 
	C42.293365,51.746429 42.655159,51.876625 43.007427,52.005398 
	C42.997902,52.003979 42.999844,51.984928 42.890961,52.216263 
	C43.001637,52.696999 43.221203,52.946396 43.440765,53.195793 
	C42.993347,54.247093 42.545925,55.298389 42.060760,56.696747 
	C42.023014,57.043804 42.007278,57.005199 41.746437,56.882423 
	C40.969555,57.052193 40.453506,57.344738 39.937462,57.637280 
	C36.559887,58.981403 37.500145,55.938301 36.367783,54.556900 
z"/>
<path fill="#758D33" opacity="1.000000" stroke="none" 
	d="
M58.688675,14.985893 
	C58.990437,15.309155 58.983654,15.476146 58.614105,16.034422 
	C57.802959,18.724678 57.354568,21.023647 56.906181,23.322618 
	C55.286011,23.815554 53.273453,24.559517 53.918373,21.613596 
	C54.515697,18.885086 53.798729,15.031615 58.688675,14.985893 
z"/>
<path fill="#E5EADA" opacity="1.000000" stroke="none" 
	d="
M29.994858,38.962761 
	C27.687321,35.101650 23.848467,37.581120 20.371975,36.790363 
	C19.950117,36.325340 19.963524,35.970898 19.978636,35.350372 
	C22.194931,34.980789 24.409521,34.877296 26.798773,34.402657 
	C28.733709,33.778770 30.493986,33.526028 32.650299,33.187767 
	C33.156105,33.409058 33.352230,33.643688 33.839958,33.917622 
	C33.004932,35.135094 31.964666,36.241085 30.896126,37.697353 
	C30.618942,38.277458 30.370033,38.507290 29.994858,38.962761 
z"/>
<path fill="#7E9440" opacity="1.000000" stroke="none" 
	d="
M39.563080,31.320892 
	C41.354042,33.178852 45.546001,33.370083 43.449520,37.516769 
	C43.823330,37.801643 43.913471,37.724998 43.913471,37.724998 
	C42.547157,37.617508 41.180840,37.510017 39.394020,36.799648 
	C38.297577,35.464783 37.621647,34.732792 36.945713,34.000805 
	C36.945713,34.000805 37.002934,33.999210 36.998314,34.027214 
	C37.736259,33.091892 38.478825,32.128574 39.563080,31.320892 
z"/>
<path fill="#778E35" opacity="1.000000" stroke="none" 
	d="
M23.964474,60.848442 
	C25.382357,59.367367 26.624538,57.608379 28.288534,56.461288 
	C29.289536,55.771240 30.947680,56.034458 32.659008,55.934105 
	C32.279457,61.337395 27.703825,60.577869 24.094061,61.149185 
	C23.970499,60.753399 23.966419,60.828236 23.964474,60.848442 
z"/>
<path fill="#7A913A" opacity="1.000000" stroke="none" 
	d="
M64.145576,33.132603 
	C62.633358,34.832222 61.177402,36.266941 59.370480,37.846672 
	C59.019508,37.991680 59.028309,37.969616 59.123032,37.630501 
	C58.821007,37.184216 58.424263,37.077045 58.013760,36.984940 
	C58.000000,37.000000 58.030182,36.972595 58.113209,36.633347 
	C57.806068,36.185661 57.415901,36.077229 57.015980,35.980335 
	C57.006226,35.991875 57.030567,35.961220 57.205353,35.650375 
	C57.913727,34.220188 58.447308,33.100842 58.980888,31.981493 
	C58.980888,31.981493 58.999744,31.998871 59.251366,32.278084 
	C60.334259,32.033447 61.165527,31.509596 61.996792,30.985744 
	C62.731808,31.613064 63.466827,32.240387 64.145576,33.132603 
z"/>
<path fill="#7A913A" opacity="1.000000" stroke="none" 
	d="
M63.552059,20.995956 
	C63.552059,20.995956 63.799915,20.658279 64.175842,20.420918 
	C64.710724,19.776457 64.869682,19.369358 65.028641,18.962259 
	C65.028641,18.962259 65.029526,19.018225 65.298706,18.964951 
	C66.052277,18.278458 66.536674,17.645241 67.021080,17.012024 
	C67.618126,21.261194 67.041237,25.019958 62.350410,26.726311 
	C60.197445,23.780212 61.897282,22.394999 63.552059,20.995956 
z"/>
<path fill="#788F38" opacity="1.000000" stroke="none" 
	d="
M60.109413,51.057026 
	C60.864258,51.714600 61.619102,52.372173 62.700340,53.011826 
	C63.026730,52.993904 62.998627,52.998428 62.860161,53.309971 
	C63.157196,54.086506 63.592693,54.551495 64.028191,55.016487 
	C64.028191,55.016487 63.987835,55.009502 63.947418,55.281715 
	C64.022736,55.713482 64.138458,55.873035 64.254189,56.032585 
	C63.233574,59.896103 61.376236,56.955898 59.489204,56.427505 
	C58.754696,55.037727 58.364777,53.796654 57.965492,52.269043 
	C57.956123,51.982510 57.962532,52.046997 58.267593,51.983307 
	C59.084908,51.632084 59.597157,51.344555 60.109413,51.057026 
z"/>
<path fill="#768E36" opacity="1.000000" stroke="none" 
	d="
M63.157360,47.401371 
	C63.140465,45.594379 63.439957,43.629311 63.875069,41.312515 
	C64.010689,40.960793 64.009941,40.986282 63.878296,41.331421 
	C64.844414,42.057148 65.942177,42.437737 67.039948,42.818329 
	C69.483437,44.981323 69.533615,45.102180 67.740593,45.905037 
	C66.389465,46.510021 64.901054,46.808426 63.157360,47.401371 
z"/>
<path fill="#778E36" opacity="1.000000" stroke="none" 
	d="
M32.881248,42.386780 
	C33.093525,42.027874 33.288944,42.016460 33.777649,41.990929 
	C35.519508,41.976814 36.968079,41.976814 39.487770,41.976814 
	C38.841476,43.960625 38.331940,45.524647 37.398682,47.119781 
	C36.107677,45.210629 30.531853,47.652622 32.881248,42.386780 
z"/>
<path fill="#EAEEE2" opacity="1.000000" stroke="none" 
	d="
M63.306679,20.596180 
	C61.897282,22.394999 60.197445,23.780212 61.986420,26.572693 
	C61.970074,27.246429 61.818901,27.518269 61.373070,27.865814 
	C60.016315,26.948366 58.858234,25.901827 57.335144,24.845865 
	C56.955528,24.584410 56.940914,24.332376 56.916237,23.701481 
	C57.354568,21.023647 57.802959,18.724678 58.600670,16.284752 
	C59.131153,18.701168 59.059776,21.514727 63.306679,20.596180 
z"/>
<path fill="#738B2E" opacity="1.000000" stroke="none" 
	d="
M73.983200,33.050159 
	C72.245018,33.056446 70.506828,33.062733 68.422256,33.025536 
	C69.639275,29.194281 73.264885,27.258720 76.548958,28.474274 
	C76.595657,28.491558 76.593391,28.761633 76.544197,28.886160 
	C76.486259,29.032806 76.352119,29.149345 75.833206,29.677254 
	C74.937996,31.067099 74.460594,32.058628 73.983200,33.050159 
z"/>
<path fill="#7C933D" opacity="1.000000" stroke="none" 
	d="
M53.019054,33.058517 
	C51.415348,33.058517 49.811638,33.058517 47.885078,33.058517 
	C48.322613,31.260969 48.626842,30.011101 48.913864,28.371387 
	C49.631897,27.359058 50.367138,26.736568 51.508240,26.504946 
	C52.282417,28.950047 52.650738,31.004282 53.019054,33.058517 
z"/>
<path fill="#EAEEE2" opacity="1.000000" stroke="none" 
	d="
M53.068184,33.483978 
	C52.650738,31.004282 52.282417,28.950047 51.829941,26.512699 
	C52.235577,26.087626 52.725372,26.045664 53.583626,25.991856 
	C54.609562,28.451849 53.070747,32.597683 58.616447,31.801510 
	C58.447308,33.100842 57.913727,34.220188 56.919754,35.817215 
	C55.386726,35.782253 54.314087,35.269611 53.241444,34.756973 
	C53.200066,34.474461 53.158691,34.191952 53.068184,33.483978 
z"/>
<path fill="#748B30" opacity="1.000000" stroke="none" 
	d="
M74.038162,33.385231 
	C74.460594,32.058628 74.937996,31.067099 75.772903,30.012913 
	C76.552147,29.979080 76.973869,30.007902 77.698494,30.130337 
	C77.355835,31.584499 76.710281,32.945045 76.032791,34.634781 
	C75.364952,34.549408 74.729042,34.134853 74.038162,33.385231 
z"/>
<path fill="#E6EBDB" opacity="1.000000" stroke="none" 
	d="
M62.954475,69.368088 
	C64.311325,69.998528 65.646683,70.970177 67.048439,72.275421 
	C67.074982,73.176430 67.035133,73.743835 66.953537,74.735641 
	C65.585526,73.343124 64.259254,71.526215 62.954475,69.368088 
z"/>
<path fill="#E5EAD9" opacity="1.000000" stroke="none" 
	d="
M67.038658,42.556953 
	C65.942177,42.437737 64.844414,42.057148 63.888535,41.335480 
	C64.783203,40.981247 65.535973,40.968098 66.668564,41.102535 
	C67.044701,41.598610 67.041031,41.947094 67.038658,42.556953 
z"/>
<path fill="#EAEEE2" opacity="1.000000" stroke="none" 
	d="
M61.900635,30.775629 
	C61.165527,31.509596 60.334259,32.033447 59.245285,32.266506 
	C59.469662,31.373680 59.951744,30.771646 60.757454,30.094976 
	C61.393932,30.106905 61.635067,30.288631 61.900635,30.775629 
z"/>
<path fill="#7B913B" opacity="1.000000" stroke="none" 
	d="
M33.618462,69.888878 
	C34.043415,69.990372 34.274628,70.334099 34.767532,70.846832 
	C34.523560,71.563187 34.017895,72.110542 33.003044,73.209068 
	C33.213909,71.669891 33.319313,70.900505 33.618462,69.888878 
z"/>
<path fill="#EAEEE0" opacity="1.000000" stroke="none" 
	d="
M39.979912,58.027641 
	C40.453506,57.344738 40.969555,57.052193 41.762726,56.894417 
	C41.622536,57.690567 41.205219,58.351948 40.444893,59.106312 
	C40.075371,58.938869 40.048866,58.678440 39.979912,58.027641 
z"/>
<path fill="#EAEEE2" opacity="1.000000" stroke="none" 
	d="
M66.784279,16.877502 
	C66.536674,17.645241 66.052277,18.278458 65.271133,18.969748 
	C65.080482,18.135895 65.186577,17.243969 65.604828,16.108318 
	C66.127151,16.157391 66.337311,16.450186 66.784279,16.877502 
z"/>
<path fill="#7A913A" opacity="1.000000" stroke="none" 
	d="
M77.263351,61.861698 
	C76.976410,61.440994 76.971466,61.116581 76.973572,60.548805 
	C77.524162,60.721920 78.071312,61.138344 78.618469,61.554771 
	C78.259552,61.689190 77.900635,61.823612 77.263351,61.861698 
z"/>
<path fill="#E8EDDE" opacity="1.000000" stroke="none" 
	d="
M67.143829,55.335567 
	C67.491646,54.864597 67.987343,54.607475 68.747765,54.683422 
	C68.930603,55.326988 68.848724,55.637486 68.475098,56.000156 
	C67.886139,55.884689 67.588928,55.717052 67.143829,55.335567 
z"/>
<path fill="#EAEEE2" opacity="1.000000" stroke="none" 
	d="
M64.505905,56.017227 
	C64.138458,55.873035 64.022736,55.713482 63.951565,55.261665 
	C64.431129,54.905880 64.866127,54.842358 65.646164,55.001961 
	C65.580009,55.484009 65.168816,55.742939 64.505905,56.017227 
z"/>
<path fill="#EBEFE0" opacity="1.000000" stroke="none" 
	d="
M38.957005,27.872513 
	C38.655987,27.812927 38.782688,27.373066 38.925140,27.193935 
	C39.368351,27.111244 39.597698,27.296200 39.811497,27.787483 
	C39.664246,27.980896 39.461136,27.956497 38.957005,27.872513 
z"/>
<path fill="#7B913B" opacity="1.000000" stroke="none" 
	d="
M36.467430,68.451248 
	C36.524380,68.416862 36.410477,68.485641 36.467430,68.451248 
z"/>
<path fill="#EAEEE2" opacity="1.000000" stroke="none" 
	d="
M64.502510,18.909790 
	C64.869682,19.369358 64.710724,19.776457 64.267067,20.367641 
	C63.980366,19.986925 63.978371,19.422123 64.502510,18.909790 
z"/>
<path fill="#7E9441" opacity="1.000000" stroke="none" 
	d="
M52.808342,58.175690 
	C53.515381,58.050705 53.951870,58.135296 54.720055,58.184280 
	C54.394848,59.023167 53.737946,59.897652 53.081047,60.772141 
	C52.899963,59.976521 52.718876,59.180893 52.808342,58.175690 
z"/>
<path fill="#7E9441" opacity="1.000000" stroke="none" 
	d="
M52.129242,56.381226 
	C52.352573,56.287842 52.691715,56.371273 52.993645,56.726753 
	C52.677422,56.919479 52.440292,56.772560 52.129242,56.381226 
z"/>
<path fill="#7E9441" opacity="1.000000" stroke="none" 
	d="
M48.338207,56.901939 
	C47.975742,56.602123 48.083420,56.330917 48.738586,56.194408 
	C48.884983,56.455956 48.725742,56.656433 48.338207,56.901939 
z"/>
<path fill="#FCFCFB" opacity="1.000000" stroke="none" 
	d="
M35.349861,17.814543 
	C35.054417,17.789795 34.964005,17.634594 34.932396,17.216476 
	C35.157661,16.798416 35.324135,16.643272 35.776672,16.674355 
	C35.950848,17.170485 35.781563,17.444986 35.349861,17.814543 
z"/>
<path fill="#FCFCFB" opacity="1.000000" stroke="none" 
	d="
M24.048166,31.312780 
	C25.239624,31.832926 26.535658,32.651478 27.408642,33.761440 
	C26.041311,33.238960 25.097027,32.425072 24.048166,31.312780 
z"/>
<path fill="#FCFCFB" opacity="1.000000" stroke="none" 
	d="
M23.012039,30.255611 
	C23.410826,30.080509 23.885750,30.170538 24.184376,30.662395 
	C23.701443,30.883060 23.394812,30.701900 23.012039,30.255611 
z"/>
<path fill="#93AE32" opacity="1.000000" stroke="none" 
	d="
M52.864170,34.867161 
	C54.314087,35.269611 55.386726,35.782253 56.744968,36.128056 
	C57.030567,35.961220 57.006226,35.991875 56.900200,36.337597 
	C57.206181,36.779743 57.618179,36.876167 58.030182,36.972595 
	C58.030182,36.972595 58.000000,37.000000 57.887634,37.342659 
	C58.192951,37.780087 58.610630,37.874851 59.028309,37.969616 
	C59.028309,37.969616 59.019508,37.991680 59.034164,37.980015 
	C59.214996,41.785908 59.381172,45.603470 59.015900,49.880806 
	C58.310474,50.909386 58.136501,51.478191 57.962532,52.046997 
	C57.962532,52.046997 57.956123,51.982510 57.982559,51.964264 
	C54.163349,54.312649 50.095276,54.816322 45.291931,52.842869 
	C44.190239,52.182877 43.595039,52.083904 42.999844,51.984928 
	C42.999844,51.984928 42.997902,52.003979 43.151367,51.635925 
	C42.865837,51.172451 42.426846,51.077034 41.987854,50.981613 
	C41.987854,50.981613 41.995766,51.003952 42.005432,51.010849 
	C41.406536,46.693218 39.090794,42.194546 43.609749,38.043530 
	C43.913471,37.724998 43.823330,37.801643 43.805969,37.825722 
	C45.809414,34.231678 49.317856,35.118401 52.864170,34.867161 
z"/>
<path fill="#EBEFE0" opacity="1.000000" stroke="none" 
	d="
M42.890961,52.216263 
	C43.595039,52.083904 44.190239,52.182877 44.950424,52.618065 
	C44.836197,52.990955 44.556980,53.027637 43.859268,53.130054 
	C43.221203,52.946396 43.001637,52.696999 42.890961,52.216263 
z"/>
<path fill="#FCFCFB" opacity="1.000000" stroke="none" 
	d="
M36.661430,34.275276 
	C37.621647,34.732792 38.297577,35.464783 39.031403,36.524532 
	C38.970024,37.161957 38.797642,37.438511 38.367027,37.816551 
	C37.566986,36.817348 36.972069,35.683544 36.661430,34.275276 
z"/>
<path fill="#E5EAD9" opacity="1.000000" stroke="none" 
	d="
M58.267593,51.983307 
	C58.136501,51.478191 58.310474,50.909386 58.752632,50.205933 
	C59.230831,50.328659 59.440849,50.586037 59.880135,50.950218 
	C59.597157,51.344555 59.084908,51.632084 58.267593,51.983307 
z"/>
<path fill="#EAEEE2" opacity="1.000000" stroke="none" 
	d="
M64.370728,54.722679 
	C63.592693,54.551495 63.157196,54.086506 62.867809,53.297989 
	C63.580372,53.459263 64.146820,53.944065 64.370728,54.722679 
z"/>
<path fill="#EBEFE0" opacity="1.000000" stroke="none" 
	d="
M41.959713,51.298927 
	C42.426846,51.077034 42.865837,51.172451 43.160889,51.637344 
	C42.655159,51.876625 42.293365,51.746429 41.959713,51.298927 
z"/>
<path fill="#EAEEE2" opacity="1.000000" stroke="none" 
	d="
M59.123032,37.630501 
	C58.610630,37.874851 58.192951,37.780087 57.901398,37.327599 
	C58.424263,37.077045 58.821007,37.184216 59.123032,37.630501 
z"/>
<path fill="#EAEEE2" opacity="1.000000" stroke="none" 
	d="
M58.113209,36.633343 
	C57.618179,36.876167 57.206181,36.779743 56.909958,36.326057 
	C57.415901,36.077229 57.806068,36.185661 58.113209,36.633343 
z"/>
</svg>